  0
SECTION
  2
HEADER
  9
$ACADVER
  1
AC1009
  9
$DWGCODEPAGE
  3
ansi_1252
  9
$INSBASE
 10
0.0
 20
0.0
 30
0.0
  9
$EXTMIN
 10
-2050.0
 20
-1100.0
 30
-0.0000000046841587
  9
$EXTMAX
 10
0.0
 20
0.0
 30
0.0000000050681928
  9
$LIMMIN
 10
0.0
 20
0.0
  9
$LIMMAX
 10
12.0
 20
9.0
  9
$ORTHOMODE
 70
     0
  9
$REGENMODE
 70
     1
  9
$FILLMODE
 70
     1
  9
$QTEXTMODE
 70
     0
  9
$MIRRTEXT
 70
     1
  9
$DRAGMODE
 70
     2
  9
$LTSCALE
 40
1.0
  9
$OSMODE
 70
    37
  9
$ATTMODE
 70
     1
  9
$TEXTSIZE
 40
0.2
  9
$TRACEWID
 40
0.05
  9
$TEXTSTYLE
  7
STANDARD
  9
$CLAYER
  8
DEFAULT
  9
$CELTYPE
  6
BYLAYER
  9
$CECOLOR
 62
   256
  9
$DIMSCALE
 40
1.0
  9
$DIMASZ
 40
0.18
  9
$DIMEXO
 40
0.0625
  9
$DIMDLI
 40
0.38
  9
$DIMRND
 40
0.0
  9
$DIMDLE
 40
0.0
  9
$DIMEXE
 40
0.18
  9
$DIMTP
 40
0.0
  9
$DIMTM
 40
0.0
  9
$DIMTXT
 40
0.18
  9
$DIMCEN
 40
0.09
  9
$DIMTSZ
 40
0.0
  9
$DIMTOL
 70
     0
  9
$DIMLIM
 70
     0
  9
$DIMTIH
 70
     1
  9
$DIMTOH
 70
     1
  9
$DIMSE1
 70
     0
  9
$DIMSE2
 70
     0
  9
$DIMTAD
 70
     0
  9
$DIMZIN
 70
     0
  9
$DIMBLK
  1

  9
$DIMASO
 70
     1
  9
$DIMSHO
 70
     1
  9
$DIMPOST
  1

  9
$DIMAPOST
  1

  9
$DIMALT
 70
     0
  9
$DIMALTD
 70
     2
  9
$DIMALTF
 40
25.4
  9
$DIMLFAC
 40
1.0
  9
$DIMTOFL
 70
     0
  9
$DIMTVP
 40
0.0
  9
$DIMTIX
 70
     0
  9
$DIMSOXD
 70
     0
  9
$DIMSAH
 70
     0
  9
$DIMBLK1
  1

  9
$DIMBLK2
  1

  9
$DIMSTYLE
  2
STANDARD
  9
$DIMCLRD
 70
     0
  9
$DIMCLRE
 70
     0
  9
$DIMCLRT
 70
     0
  9
$DIMTFAC
 40
1.0
  9
$DIMGAP
 40
0.09
  9
$LUNITS
 70
     2
  9
$LUPREC
 70
     3
  9
$SKETCHINC
 40
0.1
  9
$FILLETRAD
 40
0.5
  9
$AUNITS
 70
     0
  9
$AUPREC
 70
     0
  9
$MENU
  1
.
  9
$ELEVATION
 40
0.0
  9
$PELEVATION
 40
0.0
  9
$THICKNESS
 40
0.0
  9
$LIMCHECK
 70
     0
  9
$CHAMFERA
 40
0.0
  9
$CHAMFERB
 40
0.0
  9
$SKPOLY
 70
     0
  9
$TDCREATE
 40
2457105.572741644
  9
$TDUPDATE
 40
2457105.572773947
  9
$TDINDWG
 40
0.0000000116
  9
$TDUSRTIMER
 40
0.0000000116
  9
$USRTIMER
 70
     1
  9
$ANGBASE
 50
0.0
  9
$ANGDIR
 70
     0
  9
$PDMODE
 70
     0
  9
$PDSIZE
 40
0.0
  9
$PLINEWID
 40
0.0
  9
$COORDS
 70
     1
  9
$SPLFRAME
 70
     0
  9
$SPLINETYPE
 70
     6
  9
$SPLINESEGS
 70
     8
  9
$ATTDIA
 70
     0
  9
$ATTREQ
 70
     1
  9
$HANDLING
 70
     1
  9
$HANDSEED
  5
197
  9
$SURFTAB1
 70
     6
  9
$SURFTAB2
 70
     6
  9
$SURFTYPE
 70
     6
  9
$SURFU
 70
     6
  9
$SURFV
 70
     6
  9
$UCSNAME
  2

  9
$UCSORG
 10
0.0
 20
0.0
 30
0.0
  9
$UCSXDIR
 10
1.0
 20
0.0
 30
0.0
  9
$UCSYDIR
 10
0.0
 20
1.0
 30
0.0
  9
$PUCSNAME
  2

  9
$PUCSORG
 10
0.0
 20
0.0
 30
0.0
  9
$PUCSXDIR
 10
1.0
 20
0.0
 30
0.0
  9
$PUCSYDIR
 10
0.0
 20
1.0
 30
0.0
  9
$USERI1
 70
     0
  9
$USERI2
 70
     0
  9
$USERI3
 70
     0
  9
$USERI4
 70
     0
  9
$USERI5
 70
     0
  9
$USERR1
 40
0.0
  9
$USERR2
 40
0.0
  9
$USERR3
 40
0.0
  9
$USERR4
 40
0.0
  9
$USERR5
 40
0.0
  9
$WORLDVIEW
 70
     1
  9
$SHADEDGE
 70
     3
  9
$SHADEDIF
 70
    70
  9
$TILEMODE
 70
     1
  9
$MAXACTVP
 70
    64
  9
$PLIMCHECK
 70
     0
  9
$PEXTMIN
 10
1.000000000000000E+20
 20
1.000000000000000E+20
 30
1.000000000000000E+20
  9
$PEXTMAX
 10
-1.000000000000000E+20
 20
-1.000000000000000E+20
 30
-1.000000000000000E+20
  9
$PLIMMIN
 10
0.0
 20
0.0
  9
$PLIMMAX
 10
12.0
 20
9.0
  9
$UNITMODE
 70
     0
  9
$VISRETAIN
 70
     1
  9
$PLINEGEN
 70
     0
  9
$PSLTSCALE
 70
     1
  0
ENDSEC
  0
SECTION
  2
TABLES
  0
TABLE
  2
VPORT
 70
     1
  0
VPORT
  2
*ACTIVE
 70
     0
 10
0.0
 20
0.0
 11
1.0
 21
1.0
 12
-1025.0
 22
-550.0
 13
0.0
 23
0.0
 14
0.5
 24
0.5
 15
0.5
 25
0.5
 16
0.0
 26
0.0
 36
1.0
 17
0.0
 27
0.0
 37
0.0
 40
1122.0
 41
1.863636363636364
 42
50.0
 43
0.0
 44
0.0
 50
0.0
 51
0.0
 71
     0
 72
   100
 73
     1
 74
     3
 75
     0
 76
     0
 77
     0
 78
     0
  0
ENDTAB
  0
TABLE
  2
LTYPE
 70
     1
  0
LTYPE
  2
CONTINUOUS
 70
     0
  3
Solid line
 72
    65
 73
     0
 40
0.0
  0
ENDTAB
  0
TABLE
  2
LAYER
 70
     4
  0
LAYER
  2
0
 70
     0
 62
     7
  6
CONTINUOUS
  0
LAYER
  2
Y
 70
     0
 62
     5
  6
CONTINUOUS
  0
LAYER
  2
X
 70
     0
 62
     1
  6
CONTINUOUS
  0
LAYER
  2
DEFAULT
 70
     0
 62
     7
  6
CONTINUOUS
  0
ENDTAB
  0
TABLE
  2
STYLE
 70
     1
  0
STYLE
  2
STANDARD
 70
     0
 40
0.0
 41
1.0
 50
0.0
 71
     0
 42
0.2
  3
txt
  4

  0
ENDTAB
  0
TABLE
  2
VIEW
 70
     0
  0
ENDTAB
  0
TABLE
  2
UCS
 70
     0
  0
ENDTAB
  0
TABLE
  2
APPID
 70
     1
  0
APPID
  2
ACAD
 70
     0
  0
ENDTAB
  0
TABLE
  2
DIMSTYLE
 70
     1
  0
DIMSTYLE
  2
STANDARD
 70
     0
  3

  4

  5

  6

  7

 40
1.0
 41
0.18
 42
0.0625
 43
0.38
 44
0.18
 45
0.0
 46
0.0
 47
0.0
 48
0.0
140
0.18
141
0.09
142
0.0
143
25.4
144
1.0
145
0.0
146
1.0
147
0.09
 71
     0
 72
     0
 73
     1
 74
     1
 75
     0
 76
     0
 77
     0
 78
     0
170
     0
171
     2
172
     0
173
     0
174
     0
175
     0
176
     0
177
     0
178
     0
  0
ENDTAB
  0
ENDSEC
  0
SECTION
  2
BLOCKS
  0
BLOCK
  8
0
  2
$MODEL_SPACE
 70
     0
 10
0.0
 20
0.0
 30
0.0
  3
$MODEL_SPACE
  1

  0
ENDBLK
  5
21
  8
0
  0
BLOCK
 67
     1
  8
0
  2
$PAPER_SPACE
 70
     0
 10
0.0
 20
0.0
 30
0.0
  3
$PAPER_SPACE
  1

  0
ENDBLK
  5
1D
 67
     1
  8
0
  0
ENDSEC
  0
SECTION
  2
ENTITIES
  0
ARC
  5
6B
  8
Y
 10
-550.1005933353732
 20
200.5136855884066
 30
-0.0000000000497254
 40
499.9999243147897
 50
210.0000015361086
 51
227.1022144715205
  0
LINE
  5
6C
  8
Y
 10
-983.11322297974
 20
-49.48628817812369
 30
0.0000000000000284
 11
-117.0878981504817
 21
-49.48628817812369
 31
-0.0000000000000284
  0
ARC
  5
6D
  8
Y
 10
-550.1006346324432
 20
200.5137663969714
 30
0.000000000031758
 40
500.0000572431438
 50
315.9149246393644
 51
329.9999965658578
  0
LINE
  5
6E
  8
Y
 10
-190.9468197072018
 20
-147.3491296810562
 30
0.0000000000131024
 11
-190.9468197072018
 21
-107.9497056066748
 31
0.0000000000021885
  0
ARC
  5
6F
  8
Y
 10
-193.9468197072018
 20
-107.9497056066748
 30
0.0000000000021885
 40
3.0
 50
0.0
 51
180.0
  0
LINE
  5
70
  8
Y
 10
-196.9468197072018
 20
-107.9497056066748
 30
0.0000000000021885
 11
-204.4468197072018
 21
-107.9497056066748
 31
0.0000000000021885
  0
ARC
  5
71
  8
Y
 10
-207.4468197072018
 20
-107.9497056066748
 30
0.0000000000021885
 40
3.0
 50
0.0
 51
180.0
  0
LINE
  5
72
  8
Y
 10
-210.4468197072018
 20
-107.9497056066748
 30
0.0000000000021885
 11
-210.4468197072018
 21
-166.4131230602488
 31
0.0000000000153761
  0
ARC
  5
73
  8
Y
 10
-550.1005599179272
 20
200.5137108499843
 30
0.0000000000497613
 40
499.9999646825215
 50
292.228885091513
 51
312.7895545411106
  0
LINE
  5
74
  8
Y
 10
-360.9468197112487
 20
-262.3262477192247
 30
0.0000000000665352
 11
-360.9468197112487
 21
-159.6551498644403
 31
0.0000000001245155
  0
ARC
  5
75
  8
Y
 10
-363.9468197112487
 20
-159.6551498644403
 30
0.0000000001245155
 40
3.0
 50
0.0
 51
180.0
  0
LINE
  5
76
  8
Y
 10
-366.9468197112487
 20
-159.6551498644403
 30
0.0000000001245155
 11
-374.4468197112487
 21
-159.6551498644403
 31
0.0000000001245155
  0
ARC
  5
77
  8
Y
 10
-377.4468197112487
 20
-159.6551498644403
 30
0.0000000001245155
 40
3.0
 50
0.0
 51
180.0
  0
LINE
  5
78
  8
Y
 10
-380.4468197112487
 20
-159.6551498644403
 30
0.0000000001245155
 11
-380.4468197112488
 21
-269.8240115572589
 31
0.0000000000667626
  0
ARC
  5
79
  8
Y
 10
-550.1005545210692
 20
200.5136901061545
 30
0.0000000000350385
 40
499.9999433409398
 50
272.1953937480736
 51
289.834689344931
  0
LINE
  5
7A
  8
Y
 10
-530.9468197122588
 20
-299.1192529468599
 30
0.0000000000137845
 11
-530.9468197122588
 21
-174.4862111361172
 31
0.0000000000001421
  0
ARC
  5
7B
  8
Y
 10
-533.9468197122588
 20
-174.4862111361172
 30
0.0000000000001421
 40
3.0
 50
0.0
 51
180.0
  0
LINE
  5
7C
  8
Y
 10
-536.9468197122588
 20
-174.4862111361172
 30
0.0000000000001421
 11
-544.4468197122588
 21
-174.4862111361172
 31
0.0000000000001421
  0
ARC
  5
7D
  8
Y
 10
-547.4468197122588
 20
-174.4862111361172
 30
0.0000000000001421
 40
3.0
 50
0.0
 51
180.0
  0
LINE
  5
7E
  8
Y
 10
-550.4468197122588
 20
-174.4862111361172
 30
0.0000000000001421
 11
-550.4468197122588
 21
-299.4861340941088
 31
0.0000000000144667
  0
ARC
  5
7F
  8
Y
 10
-550.10056056512
 20
200.5137118222193
 30
0.0000000000188165
 40
499.9999658117478
 50
252.4407106702133
 51
269.9603216186177
  0
LINE
  5
80
  8
Y
 10
-700.9468197128507
 20
-276.1888913937528
 30
0.0000000000365219
 11
-700.9468197128507
 21
-159.5299638050537
 31
0.0000000000710827
  0
ARC
  5
81
  8
Y
 10
-703.9468197128507
 20
-159.5299638050537
 30
0.0000000000710827
 40
3.0
 50
0.0
 51
180.0
  0
LINE
  5
82
  8
Y
 10
-706.9468197128507
 20
-159.5299638050537
 30
0.0000000000710827
 11
-714.4468197128507
 21
-159.5299638050537
 31
0.0000000000710827
  0
ARC
  5
83
  8
Y
 10
-717.4468197128507
 20
-159.5299638050537
 30
0.0000000000710827
 40
3.0
 50
0.0
 51
180.0
  0
LINE
  5
84
  8
Y
 10
-720.4468197128507
 20
-159.5299638050537
 30
0.0000000000710827
 11
-720.4468197128505
 21
-269.5736394356836
 31
0.0000000000365219
  0
ARC
  5
85
  8
Y
 10
-550.1005599900659
 20
200.5137130311022
 30
-0.0000000000783843
 40
499.9999671507733
 50
230.0818543510529
 51
250.08092693189
  0
LINE
  5
86
  8
Y
 10
-870.9468197169541
 20
-182.9672444753178
 30
-0.00000000000054
 11
-870.9468197169541
 21
-107.6285755556519
 31
0.0000000000019611
  0
ARC
  5
87
  8
Y
 10
-873.9468197169541
 20
-107.6285755556519
 30
0.0000000000019611
 40
3.0
 50
0.0
 51
180.0
  0
LINE
  5
88
  8
Y
 10
-876.9468197169541
 20
-107.6285755556519
 30
0.0000000000019611
 11
-884.4468197169541
 21
-107.6285755556519
 31
0.0000000000019611
  0
ARC
  5
89
  8
Y
 10
-887.4468197169541
 20
-107.6285755556519
 30
0.0000000000019611
 40
3.0
 50
0.0
 51
180.0
  0
LINE
  5
8A
  8
Y
 10
-890.4468197169541
 20
-107.6285755556519
 30
0.0000000000019611
 11
-890.4468197169541
 21
-165.7708629563185
 31
0.0000000000003695
  0
LINE
  5
8C
  8
X
 10
-1064.828576799904
 20
-180.9812615855426
 30
-0.0000000011119598
 11
-1102.461728944526
 21
-180.9812615855426
 31
-0.000000001474371
  0
ARC
  5
8D
  8
X
 10
-1102.461728944526
 20
-177.9812615855426
 30
-0.000000001474371
 40
3.0
 50
90.0
 51
270.0
  0
LINE
  5
8E
  8
X
 10
-1102.461728944526
 20
-174.9812615855426
 30
-0.000000001474371
 11
-1102.461728944526
 21
-168.9812615855426
 31
-0.0000000014744382
  0
ARC
  5
8F
  8
X
 10
-1102.461728944526
 20
-165.9812615855426
 30
-0.0000000014744382
 40
3.0
 50
90.0
 51
270.0
  0
LINE
  5
90
  8
X
 10
-1102.461728944526
 20
-162.9812615855426
 30
-0.0000000014744382
 11
-1064.828576799904
 21
-162.9812615855426
 31
-0.0000000011074486
  0
LINE
  5
91
  8
X
 10
-1064.828576799904
 20
-162.9812615855426
 30
-0.0000000011074486
 11
-1064.828576799904
 21
-73.21624763374984
 31
0.0
  0
ARC
  5
92
  8
X
 10
-814.8287041509219
 20
-341.7964154480474
 30
0.0000000000392159
 40
366.9267540908724
 50
132.9480172365734
 51
227.0519827634267
  0
LINE
  5
93
  8
X
 10
-1064.828576799904
 20
-610.3765832623449
 30
0.0000000000249935
 11
-1064.828576799904
 21
-520.9812615862347
 31
0.0000000003370671
  0
LINE
  5
94
  8
X
 10
-1064.828576799904
 20
-520.9812615862347
 30
0.0000000003370671
 11
-1102.365061647653
 21
-520.9812615862347
 31
0.0000000001629468
  0
ARC
  5
95
  8
X
 10
-1102.365061647653
 20
-517.9812615862347
 30
0.0000000001629468
 40
3.0
 50
90.0
 51
270.0
  0
LINE
  5
96
  8
X
 10
-1102.365061647653
 20
-514.9812615862347
 30
0.0000000001629468
 11
-1102.365061647653
 21
-508.9812615862347
 31
0.0000000001628796
  0
ARC
  5
97
  8
X
 10
-1102.365061647653
 20
-505.9812615862347
 30
0.0000000001628796
 40
3.0
 50
90.0
 51
270.0
  0
LINE
  5
98
  8
X
 10
-1102.365061647653
 20
-502.9812615862347
 30
0.0000000001628796
 11
-1064.828576799904
 21
-502.9812615862347
 31
0.0000000003728778
  0
LINE
  5
99
  8
X
 10
-1064.828576799904
 20
-502.9812615862347
 30
0.0000000003728778
 11
-1064.828576799904
 21
-350.9812615863193
 31
0.0000000036947677
  0
LINE
  5
9A
  8
X
 10
-1064.828576799904
 20
-350.9812615863193
 30
0.0000000036947677
 11
-1123.291994228454
 21
-350.9812615863193
 31
0.0000000050681928
  0
ARC
  5
9B
  8
X
 10
-1123.291994228454
 20
-347.9812615863193
 30
0.0000000050681928
 40
3.0
 50
90.0
 51
270.0
  0
LINE
  5
9C
  8
X
 10
-1123.291994228454
 20
-344.9812615863193
 30
0.0000000050681928
 11
-1123.291994228454
 21
-338.9812615863193
 31
0.0000000050681256
  0
ARC
  5
9D
  8
X
 10
-1123.291994228454
 20
-335.9812615863193
 30
0.0000000050681256
 40
3.0
 50
90.0
 51
270.0
  0
LINE
  5
9E
  8
X
 10
-1123.291994228454
 20
-332.9812615863193
 30
0.0000000050681256
 11
-1064.828576799904
 21
-332.9812615863193
 31
0.0000000036899706
  0
LINE
  5
9F
  8
X
 10
-1064.828576799904
 20
-332.9812615863193
 30
0.0000000036899706
 11
-1064.828576799904
 21
-180.9812615855426
 31
-0.0000000011119598
  0
LINE
  5
A0
  8
X
 10
-1387.439561919334
 20
-975.1772267185943
 30
-0.0000000046840915
 11
-1393.439561919334
 21
-975.1772267185952
 31
-0.0000000046841587
  0
ARC
  5
A1
  8
X
 10
-1396.439561919334
 20
-975.1772267185952
 30
-0.0000000046841587
 40
3.0
 50
180.0
 51
0.0
  0
LINE
  5
A2
  8
X
 10
-1399.439561919334
 20
-975.1772267185952
 30
-0.0000000046841587
 11
-1399.439561919334
 21
-917.034939341067
 31
-0.0000000035226409
  0
LINE
  5
A3
  8
X
 10
-1399.439561919334
 20
-917.034939341067
 30
-0.0000000035226409
 11
-1551.439561919293
 21
-917.034939341067
 31
-0.0000000000476725
  0
LINE
  5
A4
  8
X
 10
-1551.439561919293
 20
-917.034939341067
 30
-0.0000000000476725
 11
-1551.439561919293
 21
-954.3057440677549
 31
-0.000000000073067
  0
ARC
  5
A5
  8
X
 10
-1554.439561919293
 20
-954.3057440677549
 30
-0.000000000073067
 40
3.0
 50
180.0
 51
0.0
  0
LINE
  5
A6
  8
X
 10
-1557.439561919293
 20
-954.3057440677549
 30
-0.000000000073067
 11
-1563.439561919293
 21
-954.3057440677558
 31
-0.0000000000731342
  0
ARC
  5
A7
  8
X
 10
-1566.439561919293
 20
-954.3057440677558
 30
-0.0000000000731342
 40
3.0
 50
180.0
 51
0.0
  0
LINE
  5
A8
  8
X
 10
-1569.439561919293
 20
-954.3057440677558
 30
-0.0000000000731342
 11
-1569.439561919293
 21
-917.034939341067
 31
-0.000000000053535
  0
LINE
  5
A9
  8
X
 10
-1569.439561919293
 20
-917.034939341067
 30
-0.000000000053535
 11
-1658.326581318654
 21
-917.034939341067
 31
0.0
  0
ARC
  5
AA
  8
X
 10
-1390.624463500107
 20
-667.0349393410684
 30
-0.0000000000998441
 40
366.284621414187
 50
223.0416119803291
 51
316.9583880196709
  0
LINE
  5
AB
  8
X
 10
-1122.922345681561
 20
-917.034939341067
 30
-0.0000000000633951
 11
-1211.439561920221
 21
-917.034939341067
 31
-0.0000000014769694
  0
LINE
  5
AC
  8
X
 10
-1211.439561920221
 20
-917.034939341067
 30
-0.0000000014769694
 11
-1211.439561920221
 21
-954.2088607861879
 31
-0.0000000016786662
  0
ARC
  5
AD
  8
X
 10
-1214.439561920221
 20
-954.2088607861879
 30
-0.0000000016786662
 40
3.0
 50
180.0
 51
0.0
  0
LINE
  5
AE
  8
X
 10
-1217.439561920221
 20
-954.2088607861879
 30
-0.0000000016786662
 11
-1223.439561920221
 21
-954.2088607861888
 31
-0.0000000016787334
  0
ARC
  5
AF
  8
X
 10
-1226.439561920221
 20
-954.2088607861888
 30
-0.0000000016787334
 40
3.0
 50
180.0
 51
0.0
  0
LINE
  5
B0
  8
X
 10
-1229.439561920221
 20
-954.2088607861888
 30
-0.0000000016787334
 11
-1229.439561920221
 21
-917.034939341067
 31
-0.0000000015123943
  0
LINE
  5
B1
  8
X
 10
-1229.439561920221
 20
-917.034939341067
 30
-0.0000000015123943
 11
-1381.439561919334
 21
-917.034939341067
 31
-0.0000000035190264
  0
LINE
  5
B2
  8
X
 10
-1381.439561919334
 20
-917.034939341067
 30
-0.0000000035190264
 11
-1381.439561919334
 21
-975.1772267185943
 31
-0.0000000046840915
  0
ARC
  5
B3
  8
X
 10
-1384.439561919334
 20
-975.1772267185943
 30
-0.0000000046840915
 40
3.0
 50
180.0
 51
0.0
  0
LINE
  5
B4
  8
X
 10
-1265.731884452609
 20
-115.3102387478075
 30
0.0000000009899514
 11
-1228.14090443246
 21
-115.3102387478066
 31
0.0000000007477777
  0
LINE
  5
B5
  8
X
 10
-1228.14090443246
 20
-115.3102387478066
 30
0.0000000007477777
 11
-1228.14090443246
 21
-65.73157514895684
 31
0.0
  0
ARC
  5
B6
  8
X
 10
-978.1409255378016
 20
-464.1253488377898
 30
0.0000000000264928
 40
470.3377386106271
 50
122.109084853898
 51
237.890915146102
  0
LINE
  5
B7
  8
X
 10
-1228.14090443246
 20
-862.5191225266226
 30
0.000000000024822
 11
-1228.14090443246
 21
-813.3102387448907
 31
0.0000000004264631
  0
LINE
  5
B8
  8
X
 10
-1228.14090443246
 20
-813.3102387448907
 30
0.0000000004264631
 11
-1265.538442118627
 21
-813.3102387448916
 31
0.0000000005499368
  0
ARC
  5
B9
  8
X
 10
-1265.538442118627
 20
-810.3102387448916
 30
0.0000000005499368
 40
3.0
 50
90.0
 51
270.0
  0
LINE
  5
BA
  8
X
 10
-1265.538442118627
 20
-807.3102387448916
 30
0.0000000005499368
 11
-1265.538442118627
 21
-801.3102387448916
 31
0.0000000005498696
  0
ARC
  5
BB
  8
X
 10
-1265.538442118627
 20
-798.3102387448916
 30
0.0000000005498696
 40
3.0
 50
90.0
 51
270.0
  0
LINE
  5
BC
  8
X
 10
-1265.538442118627
 20
-795.3102387448916
 30
0.0000000005498696
 11
-1228.14090443246
 21
-795.3102387448916
 31
0.0000000004285396
  0
LINE
  5
BD
  8
X
 10
-1228.14090443246
 20
-795.3102387448916
 30
0.0000000004285396
 11
-1228.14090443246
 21
-643.3102387459248
 31
0.0000000000905628
  0
LINE
  5
BE
  8
X
 10
-1228.14090443246
 20
-643.3102387459248
 30
0.0000000000905628
 11
-1322.375201184031
 21
-643.3102387459248
 31
0.0000000000061727
  0
ARC
  5
BF
  8
X
 10
-1322.375201184031
 20
-640.3102387459248
 30
0.0000000000061727
 40
3.0
 50
90.0
 51
270.0
  0
LINE
  5
C0
  8
X
 10
-1322.375201184031
 20
-637.3102387459248
 30
0.0000000000061727
 11
-1322.375201184031
 21
-631.3102387459248
 31
0.0000000000061055
  0
ARC
  5
C1
  8
X
 10
-1322.375201184031
 20
-628.3102387459248
 30
0.0000000000061055
 40
3.0
 50
90.0
 51
270.0
  0
LINE
  5
C2
  8
X
 10
-1322.375201184031
 20
-625.3102387459248
 30
0.0000000000061055
 11
-1228.14090443246
 21
-625.3102387459257
 31
0.0000000000971874
  0
LINE
  5
C3
  8
X
 10
-1228.14090443246
 20
-625.3102387459257
 30
0.0000000000971874
 11
-1228.14090443246
 21
-473.3102387458075
 31
0.0000000008044977
  0
LINE
  5
C4
  8
X
 10
-1228.14090443246
 20
-473.3102387458075
 30
0.0000000008044977
 11
-1338.309766118776
 21
-473.3102387458075
 31
0.0000000010212825
  0
ARC
  5
C5
  8
X
 10
-1338.309766118776
 20
-470.3102387458075
 30
0.0000000010212825
 40
3.0
 50
90.0
 51
270.0
  0
LINE
  5
C6
  8
X
 10
-1338.309766118776
 20
-467.3102387458075
 30
0.0000000010212825
 11
-1338.309766118776
 21
-461.3102387458075
 31
0.0000000010212153
  0
ARC
  5
C7
  8
X
 10
-1338.309766118776
 20
-458.3102387458075
 30
0.0000000010212153
 40
3.0
 50
90.0
 51
270.0
  0
LINE
  5
C8
  8
X
 10
-1338.309766118776
 20
-455.3102387458075
 30
0.0000000010212153
 11
-1228.14090443246
 21
-455.3102387458075
 31
0.0000000008063442
  0
LINE
  5
C9
  8
X
 10
-1228.14090443246
 20
-455.3102387458075
 30
0.0000000008063442
 11
-1228.14090443246
 21
-303.310238745933
 31
0.0000000000982293
  0
LINE
  5
CA
  8
X
 10
-1228.14090443246
 20
-303.310238745933
 30
0.0000000000982293
 11
-1322.446878224506
 21
-303.310238745933
 31
0.000000000000602
  0
ARC
  5
CB
  8
X
 10
-1322.446878224506
 20
-300.310238745933
 30
0.000000000000602
 40
3.0
 50
90.0
 51
270.0
  0
LINE
  5
CC
  8
X
 10
-1322.446878224506
 20
-297.310238745933
 30
0.000000000000602
 11
-1322.446878224506
 21
-291.310238745933
 31
0.0000000000005348
  0
ARC
  5
CD
  8
X
 10
-1322.446878224506
 20
-288.310238745933
 30
0.0000000000005348
 40
3.0
 50
90.0
 51
270.0
  0
LINE
  5
CE
  8
X
 10
-1322.446878224506
 20
-285.310238745933
 30
0.0000000000005348
 11
-1228.14090443246
 21
-285.310238745933
 31
0.0000000001019799
  0
LINE
  5
CF
  8
X
 10
-1228.14090443246
 20
-285.310238745933
 30
0.0000000001019799
 11
-1228.14090443246
 21
-133.3102387478075
 31
0.0000000007446489
  0
LINE
  5
D0
  8
X
 10
-1228.14090443246
 20
-133.3102387478075
 30
0.0000000007446489
 11
-1265.731884452609
 21
-133.3102387478075
 31
0.0000000009900186
  0
ARC
  5
D1
  8
X
 10
-1265.731884452609
 20
-130.3102387478075
 30
0.0000000009900186
 40
3.0
 50
90.0
 51
270.0
  0
LINE
  5
D2
  8
X
 10
-1265.731884452609
 20
-127.3102387478075
 30
0.0000000009900186
 11
-1265.731884452609
 21
-121.3102387478075
 31
0.0000000009899514
  0
ARC
  5
D3
  8
X
 10
-1265.731884452609
 20
-118.3102387478075
 30
0.0000000009899514
 40
3.0
 50
90.0
 51
270.0
  0
LINE
  5
D4
  8
X
 10
-1876.604786359881
 20
-500.988346158505
 30
0.0000000000110668
 11
-1751.604863401888
 21
-500.988346158505
 31
0.0000000000203672
  0
LINE
  5
D5
  8
X
 10
-1751.604863401888
 20
-500.988346158505
 30
0.0000000000203672
 11
-1751.604863401888
 21
-652.9883461591198
 31
0.000000000064076
  0
LINE
  5
D6
  8
X
 10
-1751.604863401888
 20
-652.9883461591198
 30
0.000000000064076
 11
-1861.67771348332
 21
-652.9883461591198
 31
0.0000000000749997
  0
ARC
  5
D7
  8
X
 10
-1861.67771348332
 20
-655.9883461591198
 30
0.0000000000749997
 40
3.0
 50
90.0
 51
270.0
  0
LINE
  5
D8
  8
X
 10
-1861.67771348332
 20
-658.9883461591198
 30
0.0000000000749997
 11
-1861.67771348332
 21
-664.9883461591198
 31
0.0000000000750669
  0
ARC
  5
D9
  8
X
 10
-1861.67771348332
 20
-667.9883461591198
 30
0.0000000000750669
 40
3.0
 50
90.0
 51
270.0
  0
LINE
  5
DA
  8
X
 10
-1861.67771348332
 20
-670.9883461591198
 30
0.0000000000750669
 11
-1751.604863401888
 21
-670.9883461591198
 31
0.0000000000636043
  0
LINE
  5
DB
  8
X
 10
-1751.604863401888
 20
-670.9883461591198
 30
0.0000000000636043
 11
-1751.604863401889
 21
-822.9883461629724
 31
0.0000000000095073
  0
LINE
  5
DC
  8
X
 10
-1751.604863401889
 20
-822.9883461629724
 30
0.0000000000095073
 11
-1809.822024749224
 21
-822.9883461629724
 31
0.0000000000034907
  0
ARC
  5
DD
  8
X
 10
-1809.822024749224
 20
-825.9883461629724
 30
0.0000000000034907
 40
3.0
 50
90.0
 51
270.0
  0
LINE
  5
DE
  8
X
 10
-1809.822024749224
 20
-828.9883461629724
 30
0.0000000000034907
 11
-1809.822024749224
 21
-834.9883461629724
 31
0.0000000000035579
  0
ARC
  5
DF
  8
X
 10
-1809.822024749224
 20
-837.9883461629724
 30
0.0000000000035579
 40
3.0
 50
90.0
 51
270.0
  0
LINE
  5
E0
  8
X
 10
-1809.822024749224
 20
-840.9883461629724
 30
0.0000000000035579
 11
-1751.604863401888
 21
-840.9883461629724
 31
0.0000000000087064
  0
LINE
  5
E1
  8
X
 10
-1751.604863401888
 20
-840.9883461629724
 30
0.0000000000087064
 11
-1751.604863401889
 21
-924.816008026648
 31
0.0000000000003878
  0
ARC
  5
E2
  8
X
 10
-1501.604863401888
 20
-491.8034445777303
 30
0.0000000000003878
 40
499.9998801045888
 50
120.0000079322188
 51
239.9999920677812
  0
LINE
  5
E3
  8
X
 10
-1751.604863401889
 20
-58.79088112881254
 30
0.0
 11
-1751.604863401889
 21
-142.9883461543795
 31
0.0000000000047144
  0
LINE
  5
E4
  8
X
 10
-1751.604863401889
 20
-142.9883461543795
 30
0.0000000000047144
 11
-1809.993507405568
 21
-142.9883461543795
 31
0.0000000000031496
  0
ARC
  5
E5
  8
X
 10
-1809.993507405568
 20
-145.9883461543795
 30
0.0000000000031496
 40
3.0
 50
90.0
 51
270.0
  0
LINE
  5
E6
  8
X
 10
-1809.993507405568
 20
-148.9883461543795
 30
0.0000000000031496
 11
-1809.993507405568
 21
-154.9883461543795
 31
0.0000000000032168
  0
ARC
  5
E7
  8
X
 10
-1809.993507405568
 20
-157.9883461543795
 30
0.0000000000032168
 40
3.0
 50
90.0
 51
270.0
  0
LINE
  5
E8
  8
X
 10
-1809.993507405568
 20
-160.9883461543795
 30
0.0000000000032168
 11
-1751.604863401888
 21
-160.9883461543795
 31
0.0000000000044818
  0
LINE
  5
E9
  8
X
 10
-1751.604863401888
 20
-160.9883461543795
 30
0.0000000000044818
 11
-1751.604863401889
 21
-312.9883461578347
 31
0.0000000000418088
  0
LINE
  5
EA
  8
X
 10
-1751.604863401889
 20
-312.9883461578347
 30
0.000000000090636
 11
-1861.744562547332
 21
-312.9883461578347
 31
0.0000000000818209
  0
ARC
  5
EB
  8
X
 10
-1861.744562547332
 20
-315.9883461578347
 30
0.0000000000818209
 40
3.0
 50
90.0
 51
270.0
  0
LINE
  5
EC
  8
X
 10
-1861.744562547332
 20
-318.9883461578347
 30
0.0000000000818209
 11
-1861.744562547331
 21
-324.9883461578347
 31
0.0000000000818881
  0
ARC
  5
ED
  8
X
 10
-1861.744562547331
 20
-327.9883461578347
 30
0.0000000000818881
 40
3.0
 50
90.0
 51
270.0
  0
LINE
  5
EE
  8
X
 10
-1861.744562547331
 20
-330.9883461578347
 30
0.0000000000818881
 11
-1751.604863401888
 21
-330.9883461578347
 31
0.0000000000658496
  0
LINE
  5
EF
  8
X
 10
-1751.604863401888
 20
-330.9883461578347
 30
0.0000000000658496
 11
-1751.604863401889
 21
-482.988346158505
 31
0.0000000000210242
  0
LINE
  5
F0
  8
X
 10
-1751.604863401889
 20
-482.988346158505
 30
0.0000000000210242
 11
-1876.604786359881
 21
-482.988346158505
 31
0.0000000000109996
  0
ARC
  5
F1
  8
X
 10
-1876.604786359881
 20
-485.988346158505
 30
0.0000000000109996
 40
3.0
 50
90.0
 51
270.0
  0
LINE
  5
F2
  8
X
 10
-1876.604786359881
 20
-488.988346158505
 30
0.0000000000109996
 11
-1876.604786359881
 21
-494.988346158505
 31
0.0000000000110668
  0
ARC
  5
F3
  8
X
 10
-1876.604786359881
 20
-497.988346158505
 30
0.0000000000110668
 40
3.0
 50
90.0
 51
270.0
  0
LINE
  5
F4
  8
X
 10
-1489.496633219173
 20
-466.0739515002915
 30
-0.0000000004101247
 11
-1599.540308846102
 21
-466.0739515002915
 31
-0.0000000005806788
  0
ARC
  5
F5
  8
X
 10
-1599.540308846102
 20
-463.0739515002915
 30
-0.0000000005806788
 40
3.0
 50
90.0
 51
270.0
  0
LINE
  5
F6
  8
X
 10
-1599.540308846102
 20
-460.0739515002915
 30
-0.0000000005806788
 11
-1599.540308846103
 21
-454.0739515002915
 31
-0.000000000580746
  0
ARC
  5
F7
  8
X
 10
-1599.540308846103
 20
-451.0739515002915
 30
-0.000000000580746
 40
3.0
 50
90.0
 51
270.0
  0
LINE
  5
F8
  8
X
 10
-1599.540308846103
 20
-448.0739515002915
 30
-0.000000000580746
 11
-1489.496633219173
 21
-448.0739515002915
 31
-0.0000000004093284
  0
LINE
  5
F9
  8
X
 10
-1489.496633219173
 20
-448.0739515002915
 30
-0.0000000004093284
 11
-1489.496633219173
 21
-296.073951500357
 31
0.0000000000701009
  0
LINE
  5
FA
  8
X
 10
-1489.496633219173
 20
-296.073951500357
 30
0.0000000000701009
 11
-1583.668360606331
 21
-296.073951500357
 31
0.0000000000076506
  0
ARC
  5
FB
  8
X
 10
-1583.668360606331
 20
-293.073951500357
 30
0.0000000000076506
 40
3.0
 50
90.0
 51
270.0
  0
LINE
  5
FC
  8
X
 10
-1583.668360606331
 20
-290.073951500357
 30
0.0000000000076506
 11
-1583.668360606331
 21
-284.073951500357
 31
0.0000000000075834
  0
ARC
  5
FD
  8
X
 10
-1583.668360606331
 20
-281.073951500357
 30
0.0000000000075834
 40
3.0
 50
90.0
 51
270.0
  0
LINE
  5
FE
  8
X
 10
-1583.668360606331
 20
-278.073951500357
 30
0.0000000000075834
 11
-1489.496633219173
 21
-278.073951500357
 31
0.0000000000709945
  0
LINE
  5
FF
  8
X
 10
-1489.496633219173
 20
-278.073951500357
 30
0.0000000000709945
 11
-1489.496633219173
 21
-126.0739514991856
 31
0.0000000004690656
  0
LINE
  5
100
  8
X
 10
-1489.496633219173
 20
-126.0739514991856
 30
0.0000000004690656
 11
-1526.906493532106
 21
-126.0739514991856
 31
0.0000000006229238
  0
ARC
  5
101
  8
X
 10
-1526.906493532106
 20
-123.0739514991856
 30
0.0000000006229238
 40
3.0
 50
90.0
 51
270.0
  0
LINE
  5
102
  8
X
 10
-1526.906493532106
 20
-120.0739514991856
 30
0.0000000006229238
 11
-1526.906493532106
 21
-114.0739514991856
 31
0.0000000006228566
  0
ARC
  5
103
  8
X
 10
-1526.906493532106
 20
-111.0739514991856
 30
0.0000000006228566
 40
3.0
 50
90.0
 51
270.0
  0
LINE
  5
104
  8
X
 10
-1526.906493532106
 20
-108.0739514991856
 30
0.0000000006228566
 11
-1489.496633219173
 21
-108.0739514991856
 31
0.0000000004710832
  0
LINE
  5
105
  8
X
 10
-1489.496633219173
 20
-108.0739514991856
 30
0.0000000004710832
 11
-1489.496633219173
 21
-58.79088112881254
 31
0.0
  0
ARC
  5
106
  8
X
 10
-1239.496633219174
 20
-456.889049919588
 30
0.0000000000463025
 40
470.0873876148649
 50
122.1282377839299
 51
237.87176221607
  0
LINE
  5
107
  8
X
 10
-1489.496633219173
 20
-854.9872187103638
 30
0.0000000000433561
 11
-1489.496633219173
 21
-806.0739515023433
 31
0.0000000007868461
  0
LINE
  5
108
  8
X
 10
-1489.496633219173
 20
-806.0739515023433
 30
0.0000000007868461
 11
-1526.71283521379
 21
-806.0739515023433
 31
0.0000000010483399
  0
ARC
  5
109
  8
X
 10
-1526.71283521379
 20
-803.0739515023433
 30
0.0000000010483399
 40
3.0
 50
90.0
 51
270.0
  0
LINE
  5
10A
  8
X
 10
-1526.71283521379
 20
-800.0739515023433
 30
0.0000000010483399
 11
-1526.712835213791
 21
-794.0739515023433
 31
0.0000000010482727
  0
ARC
  5
10B
  8
X
 10
-1526.712835213791
 20
-791.0739515023433
 30
0.0000000010482727
 40
3.0
 50
90.0
 51
270.0
  0
LINE
  5
10C
  8
X
 10
-1526.712835213791
 20
-788.0739515023433
 30
0.0000000010482727
 11
-1489.496633219173
 21
-788.0739515023433
 31
0.0000000007831568
  0
LINE
  5
10D
  8
X
 10
-1489.496633219173
 20
-788.0739515023433
 30
0.0000000007831568
 11
-1489.496633219173
 21
-636.0739515003643
 31
-0.0000000000327708
  0
LINE
  5
10E
  8
X
 10
-1489.496633219173
 20
-636.0739515003643
 30
-0.0000000000327708
 11
-1583.596639648038
 21
-636.0739515003643
 31
0.0000000000007157
  0
ARC
  5
10F
  8
X
 10
-1583.596639648038
 20
-633.0739515003643
 30
0.0000000000007157
 40
3.0
 50
90.0
 51
270.0
  0
LINE
  5
110
  8
X
 10
-1583.596639648038
 20
-630.0739515003643
 30
0.0000000000007157
 11
-1583.596639648038
 21
-624.0739515003643
 31
0.0000000000006485
  0
ARC
  5
111
  8
X
 10
-1583.596639648038
 20
-621.0739515003643
 30
0.0000000000006485
 40
3.0
 50
90.0
 51
270.0
  0
LINE
  5
112
  8
X
 10
-1583.596639648038
 20
-618.0739515003643
 30
0.0000000000006485
 11
-1489.496633219173
 21
-618.0739515003643
 31
-0.0000000000336839
  0
LINE
  5
113
  8
X
 10
-1489.496633219173
 20
-618.0739515003643
 30
-0.0000000000336839
 11
-1489.496633219173
 21
-466.0739515002915
 31
-0.0000000004101247
  0
CIRCLE
  5
115
  8
DEFAULT
 10
-367.794192277261
 20
-865.9892232523107
 30
0.0
 40
3.072042338782921
  0
CIRCLE
  5
116
  8
DEFAULT
 10
-249.8213797176191
 20
-544.2811631515806
 30
0.0
 40
3.072042338782921
  0
CIRCLE
  5
117
  8
DEFAULT
 10
-1682.779122814982
 20
-787.6096999496376
 30
0.0
 40
3.072042338782921
  0
CIRCLE
  5
118
  8
DEFAULT
 10
-1031.110765808728
 20
-35.59750031412568
 30
0.0
 40
3.072042338782921
  0
CIRCLE
  5
119
  8
DEFAULT
 10
-1000.0
 20
-550.0
 30
0.0
 40
3.072042338782921
  0
CIRCLE
  5
11A
  8
DEFAULT
 10
-1972.115294032286
 20
-1067.920087053152
 30
0.0
 40
3.072042338782921
  0
CIRCLE
  5
11B
  8
DEFAULT
 10
-999.9713395329123
 20
-1067.920087053152
 30
0.0
 40
3.072042338782921
  0
CIRCLE
  5
11C
  8
DEFAULT
 10
-1972.115294032286
 20
-35.59750031412568
 30
0.0
 40
3.072042338782921
  0
LINE
  5
11D
  8
Y
 10
-899.4819303010207
 20
-380.3283331103967
 30
-0.0000000000387878
 11
-906.9819303010207
 21
-380.3283331103967
 31
-0.0000000000387878
  0
ARC
  5
11E
  8
Y
 10
-909.9819303010207
 20
-380.3283331103967
 30
-0.0000000000387878
 40
3.0
 50
0.0
 51
180.0
  0
LINE
  5
11F
  8
Y
 10
-912.9819303010207
 20
-380.3283331103967
 30
-0.0000000000387878
 11
-912.9819303010207
 21
-417.5991378374601
 31
-0.000000000019461
  0
ARC
  5
120
  8
Y
 10
-572.6356772518913
 20
-93.05753335140025
 30
-0.0000000000020969
 40
470.2795179539166
 50
212.1135384220662
 51
223.6383129816705
  0
LINE
  5
121
  8
Y
 10
-970.960704699094
 20
-343.057528383707
 30
-0.0000000000000206
 11
-174.3107132753319
 21
-343.057528383707
 31
0.0000000000000362
  0
ARC
  5
122
  8
Y
 10
-572.6282287588624
 20
-93.0635299321898
 30
0.0000000003071932
 40
470.2699675747429
 50
319.7916886810337
 51
327.8865938590528
  0
LINE
  5
123
  8
Y
 10
-213.481930302422
 20
-396.6549967223273
 30
0.0000000004001571
 11
-213.481930302422
 21
-380.6906805283297
 31
0.0000000007783932
  0
ARC
  5
124
  8
Y
 10
-216.481930302422
 20
-380.6906805283297
 30
0.0000000007783932
 40
3.0
 50
0.0
 51
180.0
  0
LINE
  5
125
  8
Y
 10
-219.481930302422
 20
-380.6906805283297
 30
0.0000000007783932
 11
-226.981930302422
 21
-380.6906805283297
 31
0.0000000007783932
  0
ARC
  5
126
  8
Y
 10
-229.981930302422
 20
-380.6906805283297
 30
0.0000000007783932
 40
3.0
 50
0.0
 51
180.0
  0
LINE
  5
127
  8
Y
 10
-232.981930302422
 20
-380.6906805283297
 30
0.0000000007783932
 11
-232.981930302422
 21
-418.3238326654209
 31
0.0000000004053867
  0
ARC
  5
128
  8
Y
 10
-572.635669575681
 20
-93.0575305783241
 30
0.0000000004763965
 40
470.279523130363
 50
293.7167567604213
 51
316.2395638012527
  0
LINE
  5
129
  8
Y
 10
-383.4819303009471
 20
-523.6195967129379
 30
0.0000000001032071
 11
-383.4819303009471
 21
-437.3635021757536
 31
-0.0000000000008164
  0
ARC
  5
12A
  8
Y
 10
-386.4819303009471
 20
-437.3635021757536
 30
-0.0000000000008164
 40
3.0
 50
0.0
 51
180.0
  0
LINE
  5
12B
  8
Y
 10
-389.4819303009471
 20
-437.3635021757536
 30
-0.0000000000008164
 11
-396.9819303009471
 21
-437.3635021757536
 31
-0.0000000000008164
  0
ARC
  5
12C
  8
Y
 10
-399.9819303009471
 20
-437.3635021757536
 30
-0.0000000000008164
 40
3.0
 50
0.0
 51
180.0
  0
LINE
  5
12D
  8
Y
 10
-402.9819303009471
 20
-437.3635021757536
 30
-0.0000000000008164
 11
-402.9819303009469
 21
-531.6694759678039
 31
0.0000000001111651
  0
ARC
  5
12E
  8
Y
 10
-572.6356710791654
 20
-93.0575287498797
 30
0.0000000001123037
 40
470.2795253913804
 50
272.3342120569736
 51
291.1463157427769
  0
LINE
  5
12F
  8
Y
 10
-553.4819303008658
 20
-562.9468414784624
 30
0.0000000003339913
 11
-553.4819303008658
 21
-453.19722752915
 31
0.0000000006708454
  0
ARC
  5
130
  8
Y
 10
-556.4819303008658
 20
-453.19722752915
 30
0.0000000006708454
 40
3.0
 50
0.0
 51
180.0
  0
LINE
  5
131
  8
Y
 10
-559.4819303008658
 20
-453.19722752915
 30
0.0000000006708454
 11
-566.9819303008658
 21
-453.19722752915
 31
0.0000000006708454
  0
ARC
  5
132
  8
Y
 10
-569.9819303008658
 20
-453.19722752915
 30
0.0000000006708454
 40
3.0
 50
0.0
 51
180.0
  0
LINE
  5
133
  8
Y
 10
-572.9819303008658
 20
-453.19722752915
 30
0.0000000006708454
 11
-572.9819303008658
 21
-563.3369266710497
 31
0.0000000003338777
  0
ARC
  5
134
  8
Y
 10
-572.6356712172271
 20
-93.05752876522986
 30
0.0000000001685314
 40
470.2795253782728
 50
251.2911846855278
 51
269.9578140556148
  0
LINE
  5
135
  8
Y
 10
-723.48193030094
 20
-538.4879252476239
 30
-0.0000000000045681
 11
-723.48193030094
 21
-437.2292557708661
 31
0.0000000000062322
  0
ARC
  5
136
  8
Y
 10
-726.48193030094
 20
-437.2292557708661
 30
0.0000000000062322
 40
3.0
 50
0.0
 51
180.0
  0
LINE
  5
137
  8
Y
 10
-729.48193030094
 20
-437.2292557708661
 30
0.0000000000062322
 11
-736.98193030094
 21
-437.2292557708661
 31
0.0000000000062322
  0
ARC
  5
138
  8
Y
 10
-739.98193030094
 20
-437.2292557708661
 30
0.0000000000062322
 40
3.0
 50
0.0
 51
180.0
  0
LINE
  5
139
  8
Y
 10
-742.98193030094
 20
-437.2292557708661
 30
0.0000000000062322
 11
-742.98193030094
 21
-531.4009831579779
 31
-0.0000000000047954
  0
ARC
  5
13A
  8
Y
 10
-572.6356697953028
 20
-93.05752567861065
 30
0.0000000002407055
 40
470.2795287732821
 50
226.9806074498941
 51
248.7631930438607
  0
LINE
  5
13B
  8
Y
 10
-893.481930301021
 20
-436.8896246785689
 30
-0.000000000019461
 11
-893.4819303010207
 21
-380.3283331103967
 31
-0.0000000000387878
  0
ARC
  5
13C
  8
Y
 10
-896.4819303010207
 20
-380.3283331103967
 30
-0.0000000000387878
 40
3.0
 50
0.0
 51
180.0
  0
LINE
  5
13D
  8
Y
 10
-220.0851537683985
 20
-656.0984639532253
 30
0.0000000000861174
 11
-227.5851537683985
 21
-656.0984639532253
 31
0.0000000000861174
  0
ARC
  5
13E
  8
Y
 10
-230.5851537683985
 20
-656.0984639532253
 30
0.0000000000861174
 40
3.0
 50
0.0
 51
180.0
  0
LINE
  5
13F
  8
Y
 10
-233.5851537683985
 20
-656.0984639532253
 30
0.0000000000861174
 11
-233.5851537683985
 21
-693.6349488018068
 31
0.0000000000292172
  0
ARC
  5
140
  8
Y
 10
-573.2388932025935
 20
-368.5619810768168
 30
-0.0000000001557436
 40
470.1458253107906
 50
293.723915008505
 51
316.2565806751946
  0
LINE
  5
141
  8
Y
 10
-384.085153768555
 20
-798.9780122783559
 30
-0.0000000000776484
 11
-384.085153768555
 21
-712.7962758570475
 31
0.0000000000074462
  0
ARC
  5
142
  8
Y
 10
-387.085153768555
 20
-712.7962758570475
 30
0.0000000000074462
 40
3.0
 50
0.0
 51
180.0
  0
LINE
  5
143
  8
Y
 10
-390.085153768555
 20
-712.7962758570475
 30
0.0000000000074462
 11
-397.585153768555
 21
-712.7962758570475
 31
0.0000000000074462
  0
ARC
  5
144
  8
Y
 10
-400.585153768555
 20
-712.7962758570475
 30
0.0000000000074462
 40
3.0
 50
0.0
 51
180.0
  0
LINE
  5
145
  8
Y
 10
-403.585153768555
 20
-712.7962758570475
 30
0.0000000000074462
 11
-403.585153768555
 21
-807.0305726086626
 31
-0.0000000000833896
  0
ARC
  5
146
  8
Y
 10
-573.2388945460713
 20
-368.5619794740575
 30
-0.0000000000046258
 40
470.1458272974936
 50
272.3348762179367
 51
291.1526181647646
  0
LINE
  5
147
  8
Y
 10
-554.0851537684863
 20
-838.3174830495554
 30
-0.0000000002479513
 11
-554.0851537684863
 21
-728.6348291869072
 31
-0.0000000006142503
  0
ARC
  5
148
  8
Y
 10
-557.0851537684863
 20
-728.6348291869072
 30
-0.0000000006142503
 40
3.0
 50
0.0
 51
180.0
  0
LINE
  5
149
  8
Y
 10
-560.0851537684863
 20
-728.6348291869072
 30
-0.0000000006142503
 11
-567.5851537684863
 21
-728.6348291869072
 31
-0.0000000006142503
  0
ARC
  5
14A
  8
Y
 10
-570.5851537684863
 20
-728.6348291869072
 30
-0.0000000006142503
 40
3.0
 50
0.0
 51
180.0
  0
LINE
  5
14B
  8
Y
 10
-573.5851537684863
 20
-728.6348291869072
 30
-0.0000000006142503
 11
-573.5851537684863
 21
-838.7076792650951
 31
-0.0000000002447681
  0
ARC
  5
14C
  8
Y
 10
-573.2388946856594
 20
-368.5619794931781
 30
-0.0000000000531832
 40
470.1458272806193
 50
251.2856667446482
 51
269.9578020590498
  0
LINE
  5
14D
  8
Y
 10
-724.0851537685604
 20
-813.8512169895184
 30
0.0000000001741679
 11
-724.0851537685604
 21
-712.6619855343415
 31
-0.0000000000006825
  0
ARC
  5
14E
  8
Y
 10
-727.0851537685604
 20
-712.6619855343415
 30
-0.0000000000006825
 40
3.0
 50
0.0
 51
180.0
  0
LINE
  5
14F
  8
Y
 10
-730.0851537685604
 20
-712.6619855343415
 30
-0.0000000000006825
 11
-737.5851537685604
 21
-712.6619855343415
 31
-0.0000000000006825
  0
ARC
  5
150
  8
Y
 10
-740.5851537685604
 20
-712.6619855343415
 30
-0.0000000000006825
 40
3.0
 50
0.0
 51
180.0
  0
LINE
  5
151
  8
Y
 10
-743.5851537685604
 20
-712.6619855343415
 30
-0.0000000000006825
 11
-743.5851537685604
 21
-806.7619919632016
 31
0.0000000001798238
  0
ARC
  5
152
  8
Y
 10
-573.2388932632277
 20
-368.5619764038442
 30
-0.0000000001278512
 40
470.1458306784946
 50
226.9654012877335
 51
248.7568610182687
  0
LINE
  5
153
  8
Y
 10
-894.0851537702403
 20
-712.21118595195
 30
0.0000000004442594
 11
-894.0851537702403
 21
-655.7359005505969
 31
0.000000000888576
  0
ARC
  5
154
  8
Y
 10
-897.0851537702403
 20
-655.7359005505969
 30
0.000000000888576
 40
3.0
 50
0.0
 51
180.0
  0
LINE
  5
155
  8
Y
 10
-900.0851537702403
 20
-655.7359005505969
 30
0.000000000888576
 11
-907.5851537702403
 21
-655.7359005505969
 31
0.000000000888576
  0
ARC
  5
156
  8
Y
 10
-910.5851537702403
 20
-655.7359005505969
 30
0.000000000888576
 40
3.0
 50
0.0
 51
180.0
  0
LINE
  5
157
  8
Y
 10
-913.5851537702403
 20
-655.7359005505969
 30
0.000000000888576
 11
-913.5851537702403
 21
-692.9098220043225
 31
0.0000000004442878
  0
ARC
  5
158
  8
Y
 10
-573.2389003430691
 20
-368.5619837960296
 30
0.0000000002239606
 40
470.1458203284436
 50
212.1237652788706
 51
223.6212232999981
  0
LINE
  5
159
  8
Y
 10
-971.4060696546309
 20
-618.561979105476
 30
0.0000000000000002
 11
-175.0717195881733
 21
-618.561979105476
 31
-0.0000000000000572
  0
ARC
  5
15A
  8
Y
 10
-573.2389877953198
 20
-368.5619110299215
 30
0.0000000000292725
 40
470.1459427766271
 50
319.8109955937024
 51
327.8762336196854
  0
LINE
  5
15B
  8
Y
 10
-214.0851537683985
 20
-671.9523047688899
 30
0.0000000000334236
 11
-214.0851537683985
 21
-656.0984639532253
 31
0.0000000000861174
  0
ARC
  5
15C
  8
Y
 10
-217.0851537683985
 20
-656.0984639532253
 30
0.0000000000861174
 40
3.0
 50
0.0
 51
180.0
  0
LINE
  5
15D
  8
Y
 10
-501.6112862265369
 20
-954.359138428983
 30
-0.0000000018750175
 11
-509.1112862265369
 21
-954.359138428983
 31
-0.0000000018750175
  0
ARC
  5
15E
  8
Y
 10
-512.1112862265369
 20
-954.359138428983
 30
-0.0000000018750175
 40
3.0
 50
0.0
 51
180.0
  0
LINE
  5
15F
  8
Y
 10
-515.1112862265369
 20
-954.359138428983
 30
-0.0000000018750175
 11
-515.1112862265369
 21
-991.9501184543851
 31
-0.0000000004466561
  0
ARC
  5
160
  8
Y
 10
-684.7650287099359
 20
-666.7681541977076
 30
0.0000000005246759
 40
366.7774559817636
 50
272.99344466796
 51
297.5519234259243
  0
LINE
  5
161
  8
Y
 10
-665.6112862275237
 20
-1033.045148240975
 30
0.0000000022465851
 11
-665.6112862275237
 21
-975.1568024125136
 31
0.0000000041254306
  0
ARC
  5
162
  8
Y
 10
-668.6112862275237
 20
-975.1568024125136
 30
0.0000000041254306
 40
3.0
 50
0.0
 51
180.0
  0
LINE
  5
163
  8
Y
 10
-671.6112862275237
 20
-975.1568024125136
 30
0.0000000041254306
 11
-679.1112862275237
 21
-975.1568024125136
 31
0.0000000041254306
  0
ARC
  5
164
  8
Y
 10
-682.1112862275237
 20
-975.1568024125136
 30
0.0000000041254306
 40
3.0
 50
0.0
 51
180.0
  0
LINE
  5
165
  8
Y
 10
-685.1112862275237
 20
-975.1568024125136
 30
0.0000000041254306
 11
-685.1112862275238
 21
-1033.545446407286
 31
0.0000000022598865
  0
ARC
  5
166
  8
Y
 10
-684.7650267500453
 20
-666.7681454849142
 30
0.0000000012542537
 40
366.7774643670548
 50
245.7150708619691
 51
269.9459094095187
  0
LINE
  5
167
  8
Y
 10
-835.6112862269041
 20
-1001.090017891382
 30
0.0000000005888036
 11
-835.6112862269041
 21
-954.1780187217664
 31
0.0000000011777015
  0
ARC
  5
168
  8
Y
 10
-838.6112862269041
 20
-954.1780187217664
 30
0.0000000011777015
 40
3.0
 50
0.0
 51
180.0
  0
LINE
  5
169
  8
Y
 10
-841.6112862269041
 20
-954.1780187217664
 30
0.0000000011777015
 11
-849.1112862269041
 21
-954.1780187217664
 31
0.0000000011777015
  0
ARC
  5
16A
  8
Y
 10
-852.1112862269041
 20
-954.1780187217664
 30
0.0000000011777015
 40
3.0
 50
0.0
 51
180.0
  0
LINE
  5
16B
  8
Y
 10
-855.1112862269041
 20
-954.1780187217664
 30
0.0000000011777015
 11
-855.1112862269041
 21
-991.5878790313909
 31
0.0000000005886331
  0
ARC
  5
16C
  8
Y
 10
-684.765067547684
 20
-666.768211591382
 30
0.0000000003297177
 40
366.7773855816994
 50
222.9697561620565
 51
242.3259912867171
  0
LINE
  5
16D
  8
Y
 10
-953.141067155358
 20
-916.7681584088332
 30
0.0000000000000195
 11
-416.3890665825975
 21
-916.7681584088341
 31
-0.0000000000000373
  0
ARC
  5
16E
  8
Y
 10
-684.7634492570334
 20
-666.7704415706053
 30
0.0000000005951153
 40
366.7746824689673
 50
301.0454331768085
 51
317.0303265671168
  0
LINE
  5
16F
  8
Y
 10
-495.611286226537
 20
-981.0078150975241
 30
-0.0000000005377192
 11
-495.6112862265369
 21
-954.359138428983
 31
-0.0000000018750175
  0
ARC
  5
170
  8
Y
 10
-498.6112862265369
 20
-954.359138428983
 30
-0.0000000018750175
 40
3.0
 50
0.0
 51
180.0
  0
ARC
  5
171
  8
Y
 10
-386.9885253894585
 20
-714.7861228563663
 30
-0.0000000009885203
 40
366.4344778046841
 50
31.07774592420912
 51
46.98026816194305
  0
LINE
  5
172
  8
Y
 10
-73.14925109576413
 20
-525.6323852913929
 30
0.0000000000715147
 11
-99.5909966043026
 21
-525.6323852913929
 31
-0.000000000000108
  0
ARC
  5
173
  8
Y
 10
-99.5909966043026
 20
-528.6323852913929
 30
-0.000000000000108
 40
3.0
 50
90.0
 51
270.0
  0
LINE
  5
174
  8
Y
 10
-99.5909966043026
 20
-531.6323852913929
 30
-0.000000000000108
 11
-99.5909966043026
 21
-539.1323852913929
 31
-0.000000000000108
  0
ARC
  5
175
  8
Y
 10
-99.5909966043026
 20
-542.1323852913929
 30
-0.000000000000108
 40
3.0
 50
90.0
 51
270.0
  0
LINE
  5
176
  8
Y
 10
-99.5909966043026
 20
-545.1323852913929
 30
-0.000000000000108
 11
-62.19345891521877
 21
-545.1323852913929
 31
-0.0000000000314856
  0
ARC
  5
177
  8
Y
 10
-386.9885384206536
 20
-714.7861277654845
 30
-0.0000000009317211
 40
366.434490743444
 50
2.996248943829211
 51
27.5799047787641
  0
LINE
  5
178
  8
Y
 10
-21.05497866469975
 20
-695.6323852919395
 30
-0.0000000025424868
 11
-78.7713729431342
 21
-695.6323852919395
 31
-0.000000000000108
  0
ARC
  5
179
  8
Y
 10
-78.7713729431342
 20
-698.6323852919395
 30
-0.000000000000108
 40
3.0
 50
90.0
 51
270.0
  0
LINE
  5
17A
  8
Y
 10
-78.7713729431342
 20
-701.6323852919395
 30
-0.000000000000108
 11
-78.7713729431342
 21
-709.1323852919395
 31
-0.000000000000108
  0
ARC
  5
17B
  8
Y
 10
-78.7713729431342
 20
-712.1323852919395
 30
-0.000000000000108
 40
3.0
 50
90.0
 51
270.0
  0
LINE
  5
17C
  8
Y
 10
-78.7713729431342
 20
-715.1323852919395
 30
-0.000000000000108
 11
-20.55421160542207
 21
-715.1323852919395
 31
-0.0000000025648831
  0
ARC
  5
17D
  8
Y
 10
-386.9885466668907
 20
-714.7861258728852
 30
-0.0000000014709421
 40
366.4344986590726
 50
335.6908723898791
 51
359.945858792353
  0
LINE
  5
17E
  8
Y
 10
-53.04297052143463
 20
-865.6323852908945
 30
-0.0000000009903204
 11
-99.77233229585258
 21
-865.6323852908945
 31
-0.000000000000108
  0
ARC
  5
17F
  8
Y
 10
-99.77233229585258
 20
-868.6323852908945
 30
-0.000000000000108
 40
3.0
 50
90.0
 51
270.0
  0
LINE
  5
180
  8
Y
 10
-99.77233229585258
 20
-871.6323852908945
 30
-0.000000000000108
 11
-99.77233229585258
 21
-879.1323852908945
 31
-0.000000000000108
  0
ARC
  5
181
  8
Y
 10
-99.77233229585258
 20
-882.1323852908945
 30
-0.000000000000108
 40
3.0
 50
90.0
 51
270.0
  0
LINE
  5
182
  8
Y
 10
-99.77233229585258
 20
-885.1323852908945
 30
-0.000000000000108
 11
-62.5561303068034
 21
-885.1323852908945
 31
-0.0000000009902067
  0
ARC
  5
183
  8
Y
 10
-386.9884835291983
 20
-714.7861647532422
 30
-0.0000000005233223
 40
366.434423422368
 50
313.0197308205086
 51
332.2978642652454
  0
LINE
  5
184
  8
Y
 10
-136.9885342904704
 20
-982.6932606830005
 30
-0.000000000000108
 11
-136.9885342904708
 21
-446.8789916065662
 31
-0.0000000000000512
  0
LINE
  5
185
  8
DEFAULT
 10
-2050.0
 20
0.0
 30
0.0
 11
0.0
 21
0.0
 31
0.0
  0
LINE
  5
186
  8
DEFAULT
 10
0.0
 20
0.0
 30
0.0
 11
0.0
 21
-1100.0
 31
0.0
  0
LINE
  5
187
  8
DEFAULT
 10
0.0
 20
-1100.0
 30
0.0
 11
-2050.0
 21
-1100.0
 31
0.0
  0
LINE
  5
188
  8
DEFAULT
 10
-2050.0
 20
-1100.0
 30
0.0
 11
-2050.0
 21
0.0
 31
0.0
  0
CIRCLE
  5
189
  8
DEFAULT
 10
-31.06109615080067
 20
-1067.920087053152
 30
0.0
 40
3.072042338782921
  0
CIRCLE
  5
18A
  8
DEFAULT
 10
-47.47461316885634
 20
-35.59750031412568
 30
0.0
 40
3.072042338782921
  0
CIRCLE
  5
18B
  8
DEFAULT
 10
-2030.0
 20
-489.5091309199543
 30
0.0
 40
3.072042338782921
  0
CIRCLE
  5
18C
  8
DEFAULT
 10
-1413.960765652152
 20
-141.893453167685
 30
0.0
 40
3.072042338782921
  0
CIRCLE
  5
18D
  8
DEFAULT
 10
-20.00000000000009
 20
-464.0574627657224
 30
0.0
 40
3.072042338782921
  0
ENDSEC
  0
EOF
